<?xml version="1.0" encoding="utf-8"?>
<!-- Generator: Adobe Illustrator 26.5.0, SVG Export Plug-In . SVG Version: 6.00 Build 0)  -->
<svg version="1.1" id="Layer_1" xmlns="http://www.w3.org/2000/svg" xmlns:xlink="http://www.w3.org/1999/xlink" x="0px" y="0px"
	 viewBox="0 0 89.6 89.6" style="enable-background:new 0 0 89.6 89.6;" xml:space="preserve">
<style type="text/css">
	.st0{fill:#5EFF00;}
</style>
<path class="st0" d="M44.8,89.6c-2.4-25.8-2.9-30.4-3.5-34.2c-0.6-2.9-1.2-4.9-1.8-5.3c-0.3-0.6-2.4-1.3-5.3-1.8
	c-3.8-0.6-8.3-1.1-34.2-3.5c25.8-2.4,30.4-2.9,34.2-3.5c2.9-0.5,4.9-1.2,5.3-1.8c0.6-0.3,1.3-2.4,1.8-5.3c0.6-3.8,1.1-8.3,3.5-34.2
	c2.4,25.8,2.9,30.4,3.5,34.2c0.5,2.9,1.2,4.9,1.8,5.3c0.3,0.6,2.4,1.3,5.3,1.8c3.8,0.6,8.3,1.1,34.2,3.5
	c-25.8,2.4-30.4,2.9-34.2,3.5c-2.9,0.5-4.9,1.2-5.3,1.8c-0.6,0.3-1.3,2.4-1.8,5.3C47.7,59.1,47.2,63.7,44.8,89.6z"/>
</svg>
