<svg width="41" height="39" viewBox="0 0 41 39" fill="none" xmlns="http://www.w3.org/2000/svg">
<path d="M20.1068 41.371C19.0192 29.6871 18.8239 27.6087 18.5451 25.8955C18.2941 24.6035 17.9873 23.6767 17.7363 23.5082C17.5969 23.2554 16.6766 22.9183 15.3659 22.6937C13.6648 22.4128 11.629 22.2162 0 21.1208C11.6011 20.0255 13.6648 19.8289 15.3659 19.548C16.6487 19.3233 17.569 18.9863 17.7363 18.7335C17.9873 18.5931 18.322 17.6662 18.5451 16.3462C18.8239 14.6329 19.0192 12.5826 20.1068 0.870667C21.1944 12.5545 21.3896 14.6329 21.6685 16.3462C21.8916 17.6381 22.2262 18.565 22.4772 18.7335C22.6166 18.9863 23.5369 19.3233 24.8476 19.548C26.5487 19.8289 28.5845 20.0255 40.2135 21.1208C28.6124 22.2162 26.5487 22.4128 24.8476 22.6937C23.5648 22.9183 22.6445 23.2554 22.4772 23.5082C22.2262 23.6486 21.8916 24.5754 21.6685 25.8955C21.4175 27.6087 21.1944 29.659 20.1068 41.371Z" fill="#32FA46"/>
</svg>
