<svg width="41" height="41" viewBox="0 0 41 41" fill="none" xmlns="http://www.w3.org/2000/svg">
<path d="M20.1068 40.5003C19.0192 28.8165 18.8239 26.7381 18.5451 25.0248C18.2941 23.7329 17.9873 22.806 17.7363 22.6375C17.5969 22.3847 16.6766 22.0477 15.3659 21.823C13.6648 21.5421 11.629 21.3455 0 20.2502C11.6011 19.1548 13.6648 18.9582 15.3659 18.6773C16.6487 18.4526 17.569 18.1156 17.7363 17.8628C17.9873 17.7224 18.322 16.7956 18.5451 15.4755C18.8239 13.7622 19.0192 11.712 20.1068 0C21.1944 11.6839 21.3896 13.7622 21.6685 15.4755C21.8916 16.7675 22.2262 17.6943 22.4772 17.8628C22.6166 18.1156 23.5369 18.4526 24.8476 18.6773C26.5487 18.9582 28.5845 19.1548 40.2135 20.2502C28.6124 21.3455 26.5487 21.5421 24.8476 21.823C23.5648 22.0477 22.6445 22.3847 22.4772 22.6375C22.2262 22.7779 21.8916 23.7048 21.6685 25.0248C21.4175 26.7381 21.1944 28.7884 20.1068 40.5003Z" fill="#010101"/>
</svg>
